<?xml version="1.0" standalone="no"?><!DOCTYPE svg PUBLIC "-//W3C//DTD SVG 1.1//EN" "http://www.w3.org/Graphics/SVG/1.1/DTD/svg11.dtd"><svg class="icon" width="200px" height="200.00px" viewBox="0 0 1024 1024" version="1.1" xmlns="http://www.w3.org/2000/svg"><path d="M746.65 64.012c-31.092 0-61.28 5.562-89.404 16-37.218-39.03-89.716-63.342-147.872-63.342-57.468 0-109.404 23.75-146.528 61.936-27-9.532-55.844-14.592-85.53-14.592-141.154 0-255.994 114.84-255.994 255.994 0 51.53 15.25 101.186 44.06 143.622 28.156 41.468 67.404 73.53 113.498 92.748l13.124 5.468v440.8H831.96v-440.8l13.124-5.468c46.092-19.218 85.34-51.28 113.496-92.748 28.812-42.436 44.062-92.092 44.062-143.622 0.002-141.156-114.84-255.996-255.992-255.996z" fill="#F5F7FA" /><path d="M746.65 42.668c-36.186 0-70.78 6.936-102.466 19.562a235.6 235.6 0 0 1 37.812 32.186 235.712 235.712 0 0 1 64.654-9.094c62.686 0 121.592 24.438 165.934 68.748 44.31 44.312 68.716 103.248 68.716 165.934 0 47.218-13.968 92.748-40.376 131.624-25.81 38.03-61.808 67.434-104.028 85.06l-26.25 10.938V981.3H213.318V547.624l-26.248-10.938c-42.218-17.624-78.216-47.03-104.03-85.06-26.406-38.876-40.376-84.404-40.376-131.624 0-62.686 24.406-121.622 68.718-165.934 44.342-44.31 103.246-68.748 165.934-68.748 21.966 0 43.748 3.124 64.654 9.094 11.406-12 24.092-22.812 37.81-32.186-31.686-12.624-66.28-19.562-102.464-19.562C124.162 42.666 0.01 166.818 0.01 320.002c0 115.342 70.436 214.246 170.652 256.058v447.926h682.64V576.062c100.214-41.812 170.684-140.716 170.684-256.058 0.002-153.182-124.184-277.336-277.336-277.336z" fill="#E6E9ED" /><path d="M512 0.012c-141.404 0-255.994 114.592-255.994 255.994a21.3 21.3 0 0 0 21.312 21.312c11.78 0 21.342-9.532 21.342-21.312 0-56.998 22.188-110.56 62.468-150.84C401.44 64.856 455 42.668 512 42.668c56.966 0 110.528 22.186 150.84 62.498 40.282 40.28 62.468 93.842 62.468 150.808v0.032c0 11.782 9.56 21.312 21.342 21.312s21.342-9.532 21.342-21.312C767.992 114.604 653.372 0.012 512 0.012zM170.664 938.648h682.64v85.34H170.664z" fill="#E6E9ED" /><path d="M362.66 469.314c-11.782 0-21.344 9.562-21.344 21.342v298.652c0 11.782 9.562 21.34 21.344 21.34 11.78 0 21.31-9.558 21.31-21.34V490.658c0-11.782-9.53-21.344-21.31-21.344zM511.968 469.314c-11.782 0-21.312 9.562-21.312 21.342v298.652c0 11.782 9.532 21.34 21.312 21.34s21.344-9.558 21.344-21.34V490.658c0-11.782-9.562-21.344-21.344-21.344zM661.308 469.314c-11.782 0-21.312 9.562-21.312 21.342h-0.032v298.652h0.032c0 11.782 9.532 21.34 21.312 21.34s21.344-9.558 21.344-21.34V490.658c0-11.782-9.562-21.344-21.344-21.344z" fill="#CCD1D9" /></svg>