<svg width="200" height="200" xmlns="http://www.w3.org/2000/svg"><g fill="none" fill-rule="nonzero"><path d="M145.828 12.5a50.13 50.13 0 00-17.462 3.125c-7.269-7.623-17.522-12.371-28.88-12.371-11.225 0-21.369 4.638-28.62 12.096a50.126 50.126 0 00-16.705-2.85c-27.569 0-49.998 22.43-49.998 50 0 10.064 2.978 19.762 8.605 28.05a49.987 49.987 0 0022.168 18.115l2.563 1.068v86.094H162.49v-86.094l2.564-1.068A49.988 49.988 0 00187.22 90.55c5.627-8.288 8.606-17.986 8.606-28.05 0-27.57-22.43-50-49.999-50z" fill="#F5F7FA"/><path d="M145.828 8.33a53.96 53.96 0 00-20.013 3.822 46.016 46.016 0 017.385 6.286 46.037 46.037 0 0112.628-1.776c12.243 0 23.749 4.773 32.41 13.427 8.653 8.655 13.42 20.166 13.42 32.41 0 9.222-2.728 18.114-7.886 25.707a45.857 45.857 0 01-20.318 16.614l-5.127 2.136v84.702H41.662v-84.703l-5.127-2.136a45.862 45.862 0 01-20.318-16.613C11.059 80.613 8.33 71.72 8.33 62.498c0-12.243 4.767-23.754 13.421-32.409 8.66-8.654 20.166-13.427 32.41-13.427 4.29 0 8.544.61 12.627 1.776a46.013 46.013 0 017.385-6.286A53.966 53.966 0 0054.16 8.33C24.248 8.33 0 32.579 0 62.498c0 22.528 13.757 41.845 33.33 50.011v87.486H166.66V112.51c19.573-8.167 33.336-27.484 33.336-50.012 0-29.918-24.254-54.167-54.167-54.167z" fill="#E6E9ED"/><path d="M99.998 0C72.38 0 49.999 22.381 49.999 49.999a4.163 4.163 0 004.163 4.162c2.3 0 4.168-1.861 4.168-4.162 0-11.133 4.334-21.594 12.2-29.461C78.405 12.665 88.866 8.33 99.999 8.33c11.126 0 21.588 4.333 29.461 12.207 7.868 7.867 12.2 18.328 12.2 29.455v.006a4.165 4.165 0 004.17 4.162A4.165 4.165 0 00149.995 50C149.996 22.38 127.61 0 99.998 0z" fill="#E6E9ED"/><g><path fill="#41B883" d="M105.852 129.006H116l-16.5 29.398L83 129.006H72L99.5 178l27.5-49z"/><path fill="#34495E" d="M117 129h-10.455L100 141.317 93.455 129H83l17 32z"/></g></g></svg>