<?xml version="1.0" standalone="no"?><!DOCTYPE svg PUBLIC "-//W3C//DTD SVG 1.1//EN" "http://www.w3.org/Graphics/SVG/1.1/DTD/svg11.dtd"><svg class="icon" width="200px" height="200.00px" viewBox="0 0 1024 1024" version="1.1" xmlns="http://www.w3.org/2000/svg"><path fill="#333333" d="M808.2 655.8c-21.7 0-42 5.7-59.5 15.8L592.4 515.4V509l156.5-156.5c17.5 10 37.7 15.6 59.3 15.6 66.3 0 120-53.7 120-120s-53.7-120-120-120-120 53.7-120 120c0 21.5 5.6 41.6 15.5 59.1l-173 173H402.5c-14.7-70.2-77.1-123-151.7-123-85.6 0-155 69.4-155 155s69.4 155 155 155c74.6 0 136.9-52.8 151.7-123h128.2L703.6 717c-9.8 17.4-15.4 37.4-15.4 58.8 0 66.3 53.7 120 120 120s120-53.7 120-120-53.8-120-120-120z m-557.4-52.6c-50.2 0-91-40.8-91-91s40.8-91 91-91 91 40.8 91 91-40.8 91-91 91z m557.4-411c30.9 0 56 25.1 56 56s-25.1 56-56 56-56-25.1-56-56 25.1-56 56-56z m0 639.6c-30.9 0-56-25.1-56-56s25.1-56 56-56 56 25.1 56 56-25.1 56-56 56z" /></svg>