<?xml version="1.0" standalone="no"?><!DOCTYPE svg PUBLIC "-//W3C//DTD SVG 1.1//EN" "http://www.w3.org/Graphics/SVG/1.1/DTD/svg11.dtd"><svg class="icon" width="200px" height="200.00px" viewBox="0 0 1024 1024" version="1.1" xmlns="http://www.w3.org/2000/svg"><path fill="#333333" d="M117.376 494.869333c19.626667 9.557333 41.386667 15.466667 64.341333 16.832l0.405334 6.549334c7.573333 102.997333 69.653333 195.285333 164.864 248.725333a170.666667 170.666667 0 1 1-3.626667 70.037333l6.186667 2.837334C208.917333 776.661333 117.333333 644.629333 117.333333 496.896l0.042667-2.026667zM512 704a106.666667 106.666667 0 1 0 0 213.333333 106.666667 106.666667 0 0 0 0-213.333333zM832 170.666667a170.666667 170.666667 0 0 1 74.602667 324.202666L906.666667 490.666667c0 16.149333-1.066667 32.213333-3.157334 48.085333C888.746667 649.962667 823.168 748.8 725.333333 811.776V810.666667c0-23.872-4.906667-46.592-13.738666-67.221334 70.72-52.949333 117.333333-129.024 128.469333-213.12 0.810667-6.165333 1.429333-12.373333 1.877333-18.624A170.666667 170.666667 0 1 1 832 170.666667zM508.138667 96c72.661333 0 142.293333 22.698667 202.176 64.597333a171.605333 171.605333 0 0 0-44.224 47.338667C618.56 176.704 564.437333 160 508.138667 160c-41.173333 0-81.216 8.917333-118.528 26.048-6.4 2.944-12.714667 6.122667-18.922667 9.536a170.666667 170.666667 0 1 1-40.746667-38.549333l-5.333333-8.661334c12.373333-7.616 25.173333-14.442667 38.293333-20.48A346.624 346.624 0 0 1 508.138667 96zM832 234.666667a106.666667 106.666667 0 1 0 0 213.333333 106.666667 106.666667 0 0 0 0-213.333333zM234.666667 192a106.666667 106.666667 0 1 0 0 213.333333 106.666667 106.666667 0 0 0 0-213.333333z" /></svg>