<svg t="1633758702491" class="icon" viewBox="0 0 1024 1024" version="1.1" xmlns="http://www.w3.org/2000/svg" p-id="7055"
    width="200" height="200">
    <path d="M0 0h1024v1024H0z" fill="#FFFFFF" p-id="7056"></path>
    <path
        d="M853.333333 853.333333H170.666667a85.333333 85.333333 0 0 1-85.333334-85.333333V256a85.333333 85.333333 0 0 1 85.333334-85.333333h682.666666a85.333333 85.333333 0 0 1 85.333334 85.333333v512a85.333333 85.333333 0 0 1-85.333334 85.333333zM213.333333 256a42.666667 42.666667 0 0 0-42.666666 42.666667v469.333333h682.666666v-341.333333h-341.333333a42.666667 42.666667 0 0 1-42.666667-42.666667V298.666667a42.666667 42.666667 0 0 0-42.666666-42.666667z m384 0a42.666667 42.666667 0 0 0-42.666666 42.666667v42.666666h298.666666V298.666667a42.666667 42.666667 0 0 0-42.666666-42.666667z"
        p-id="7057"></path>
</svg>