<?xml version="1.0" standalone="no"?><!DOCTYPE svg PUBLIC "-//W3C//DTD SVG 1.1//EN" "http://www.w3.org/Graphics/SVG/1.1/DTD/svg11.dtd"><svg class="icon" width="200px" height="200.00px" viewBox="0 0 1024 1024" version="1.1" xmlns="http://www.w3.org/2000/svg"><path fill="#333333" d="M940.8 242.688L530.56 4.8c-11.2-6.4-25.6-6.4-36.736 0L83.584 242.688c-11.2 6.4-19.2 19.136-19.2 31.872V748.8c0 12.8 6.4 25.536 19.2 31.936l410.24 236.288c11.2 6.4 25.6 6.4 36.736 0L940.8 780.736c11.2-6.4 19.2-19.2 19.2-32V274.56c0-14.336-8-25.536-19.2-31.872z m-44.672 490.048L513.024 953.088 129.856 732.736V288.96L513.024 68.672 896.128 290.56V732.8zM279.936 340.032a30.976 30.976 0 0 0-43.136 11.2c-7.936 14.336-3.2 35.136 11.2 43.072l233.088 135.68v268.224a32 32 0 0 0 31.936 31.936 32 32 0 0 0 31.872-31.936v-269.76l233.088-134.144c16-9.6 20.8-28.736 11.2-43.072-9.6-16-28.736-20.8-43.136-11.2l-233.024 134.08-233.088-134.08z" /></svg>