<?xml version="1.0" standalone="no"?><!DOCTYPE svg PUBLIC "-//W3C//DTD SVG 1.1//EN" "http://www.w3.org/Graphics/SVG/1.1/DTD/svg11.dtd"><svg t="1634272958268" class="icon" viewBox="0 0 1024 1024" version="1.1" xmlns="http://www.w3.org/2000/svg" p-id="4244" xmlns:xlink="http://www.w3.org/1999/xlink" width="200" height="200"><defs><style type="text/css"></style></defs><path d="M704 97.472L894.976 288H896v175.296l-32-31.648V320h-192V128H160v768h224.32v32H128V96h576v1.472z m0 45.216V288h145.664L704 142.688zM750.656 896H864v-114.56l32-32.352V928h-176.96l31.616-32z m81.536-216.992l-24.832-23.744-205.632 205.632 29.472 28.48 200.96-210.368z m22.08-23.136l46.784-48.96-91.008-91.04-49.888 49.888 94.112 90.112z m-116.736-67.488l-205.312 205.312 46.496 44.96 205.536-205.536-46.72-44.736z m-227.936 227.968l-29.6 29.568V928h114.304l14.816-15.488-99.52-96.16z m300.448-345.728l135.744 135.776L608 960h-160v-127.36l362.048-362.016zM431.104 800l-32.128 32H224V192h416v32H256v576h175.104zM768 464.576V352h32v80.736l-32 31.84z" p-id="4245"></path></svg>